<svg xmlns="http://www.w3.org/2000/svg" style="display: none;">
    
    <!-- Logo Icon -->
    <symbol id="icon-logo" viewBox="0 0 24 24">
        <path d="M12 2L2 7v10c0 5.55 3.84 10.74 9 12 5.16-1.26 9-6.45 9-12V7l-10-5z" 
              fill="currentColor"/>
        <path d="M12 7v10m-4-6l4 4 4-4" stroke="white" stroke-width="2" 
              stroke-linecap="round" stroke-linejoin="round" fill="none"/>
    </symbol>
    
    <!-- Menu Icon (Hamburger) -->
    <symbol id="icon-menu" viewBox="0 0 24 24">
        <path d="M3 6h18M3 12h18M3 18h18" stroke="currentColor" stroke-width="2" 
              stroke-linecap="round" stroke-linejoin="round" fill="none"/>
    </symbol>
    
    <!-- Close Icon (X) -->
    <symbol id="icon-close" viewBox="0 0 24 24">
        <path d="M18 6L6 18M6 6l12 12" stroke="currentColor" stroke-width="2" 
              stroke-linecap="round" stroke-linejoin="round" fill="none"/>
    </symbol>
    
    <!-- Shopping Cart Icon -->
    <symbol id="icon-cart" viewBox="0 0 24 24">
        <path d="M9 2L7 6H1l3.5 7H16l3-7H13L11 2H9z" stroke="currentColor" 
              stroke-width="2" stroke-linecap="round" stroke-linejoin="round" fill="none"/>
        <circle cx="9" cy="20" r="2" stroke="currentColor" stroke-width="2" fill="none"/>
        <circle cx="16" cy="20" r="2" stroke="currentColor" stroke-width="2" fill="none"/>
        <path d="M7.5 13h9l2-7H6" stroke="currentColor" stroke-width="2" 
              stroke-linecap="round" stroke-linejoin="round" fill="none"/>
    </symbol>
    
    <!-- Star Icon (Filled) -->
    <symbol id="icon-star" viewBox="0 0 24 24">
        <path d="M12 2l3.09 6.26L22 9.27l-5 4.87 1.18 6.88L12 17.77l-6.18 3.25L7 14.14 2 9.27l6.91-1.01L12 2z" 
              fill="currentColor"/>
    </symbol>
    
    <!-- Star Icon (Empty) -->
    <symbol id="icon-star-empty" viewBox="0 0 24 24">
        <path d="M12 2l3.09 6.26L22 9.27l-5 4.87 1.18 6.88L12 17.77l-6.18 3.25L7 14.14 2 9.27l6.91-1.01L12 2z" 
              stroke="currentColor" stroke-width="2" stroke-linecap="round" 
              stroke-linejoin="round" fill="none"/>
    </symbol>
    
    <!-- Instagram Icon -->
    <symbol id="icon-instagram" viewBox="0 0 24 24">
        <rect x="2" y="2" width="20" height="20" rx="5" ry="5" 
              stroke="currentColor" stroke-width="2" fill="none"/>
        <circle cx="12" cy="12" r="4" stroke="currentColor" stroke-width="2" fill="none"/>
        <circle cx="17.5" cy="6.5" r="1.5" fill="currentColor"/>
    </symbol>
    
    <!-- YouTube Icon -->
    <symbol id="icon-youtube" viewBox="0 0 24 24">
        <path d="M22.54 6.42a2.78 2.78 0 0 0-1.94-2C18.88 4 12 4 12 4s-6.88 0-8.6.46a2.78 2.78 0 0 0-1.94 2A29 29 0 0 0 1 11.75a29 29 0 0 0 .46 5.33A2.78 2.78 0 0 0 3.4 19c1.72.46 8.6.46 8.6.46s6.88 0 8.6-.46a2.78 2.78 0 0 0 1.94-2 29 29 0 0 0 .46-5.25 29 29 0 0 0-.46-5.33z" 
              stroke="currentColor" stroke-width="2" stroke-linecap="round" 
              stroke-linejoin="round" fill="none"/>
        <polygon points="9.75 15.02 15.5 11.75 9.75 8.48 9.75 15.02" fill="currentColor"/>
    </symbol>
    
    <!-- Facebook Icon -->
    <symbol id="icon-facebook" viewBox="0 0 24 24">
        <path d="M18 2h-3a5 5 0 0 0-5 5v3H7v4h3v8h4v-8h3l1-4h-4V7a1 1 0 0 1 1-1h3z" 
              stroke="currentColor" stroke-width="2" stroke-linecap="round" 
              stroke-linejoin="round" fill="none"/>
    </symbol>
    
    <!-- Arrow Right Icon -->
    <symbol id="icon-arrow-right" viewBox="0 0 24 24">
        <path d="M5 12h14M12 5l7 7-7 7" stroke="currentColor" stroke-width="2" 
              stroke-linecap="round" stroke-linejoin="round" fill="none"/>
    </symbol>
    
    <!-- Check Icon -->
    <symbol id="icon-check" viewBox="0 0 24 24">
        <polyline points="20 6 9 17 4 12" stroke="currentColor" stroke-width="2" 
                  stroke-linecap="round" stroke-linejoin="round" fill="none"/>
    </symbol>

</svg>
